<?xml version="1.0" standalone="no"?>
<!DOCTYPE svg PUBLIC "-//W3C//DTD SVG 20010904//EN"
 "http://www.w3.org/TR/2001/REC-SVG-20010904/DTD/svg10.dtd">
<svg version="1.0" xmlns="http://www.w3.org/2000/svg"
 width="128.000000pt" height="128.000000pt" viewBox="0 0 128.000000 128.000000"
 preserveAspectRatio="xMidYMid meet">

<g transform="translate(0.000000,128.000000) scale(0.100000,-0.100000)"
fill="#000000" stroke="none">
<path d="M0 640 l0 -640 640 0 640 0 0 640 0 640 -640 0 -640 0 0 -640z m470
540 c0 -5 -9 -10 -20 -10 -18 0 -20 -7 -20 -75 0 -43 -4 -75 -10 -75 -6 0 -10
32 -10 75 0 68 -2 75 -20 75 -11 0 -20 5 -20 10 0 6 23 10 50 10 28 0 50 -4
50 -10z m100 -44 c15 -20 9 -56 -12 -70 -23 -14 -37 2 -15 18 23 18 22 46 -3
46 -17 0 -20 -7 -20 -45 0 -43 1 -45 30 -45 17 0 30 -4 30 -10 0 -14 -64 -12
-78 2 -7 7 -12 30 -12 53 0 23 5 46 12 53 16 16 53 15 68 -2z m118 2 c7 -7 12
-35 12 -64 l0 -52 -35 0 c-19 0 -39 6 -45 13 -16 19 -9 56 12 69 21 13 36 0
20 -16 -17 -17 -15 -48 3 -48 11 0 15 12 15 45 0 44 -1 45 -31 45 -17 0 -28 4
-24 10 9 14 58 13 73 -2z m190 -1 c19 -12 16 -117 -3 -117 -12 0 -15 13 -15
55 0 42 -3 55 -15 55 -12 0 -15 -13 -15 -55 0 -42 -3 -55 -15 -55 -12 0 -15
13 -15 55 0 42 -3 55 -15 55 -12 0 -15 -13 -15 -55 0 -42 -3 -55 -15 -55 -12
0 -15 14 -15 64 l0 64 63 -2 c34 -1 68 -5 75 -9z m-107 -302 c31 10 49 -12 49
-60 0 -50 -15 -66 -59 -63 l-31 2 0 86 c0 88 12 132 18 65 3 -31 6 -35 23 -30z
m-481 18 l13 -28 11 28 c7 19 17 27 33 27 22 0 23 -3 23 -85 0 -54 -4 -85 -11
-85 -7 0 -9 26 -7 75 2 41 0 75 -4 75 -4 0 -14 -13 -23 -30 -9 -16 -22 -30
-29 -30 -7 0 -19 14 -26 30 -7 17 -15 30 -19 30 -3 0 -5 -34 -3 -75 2 -49 0
-75 -7 -75 -7 0 -11 31 -11 85 0 82 1 85 23 85 16 0 28 -9 37 -27z m208 -52
c3 -34 -9 -51 -37 -51 -11 0 -11 4 2 18 23 26 22 52 -3 52 -17 0 -20 -7 -20
-45 0 -43 1 -45 30 -45 17 0 30 -4 30 -10 0 -14 -64 -12 -78 2 -16 16 -15 91
0 106 7 7 26 12 43 10 26 -3 30 -7 33 -37z m180 26 c19 -12 16 -117 -3 -117
-12 0 -15 13 -15 55 0 42 -3 55 -15 55 -12 0 -15 -13 -15 -55 0 -42 -3 -55
-15 -55 -12 0 -15 13 -15 55 0 48 -2 55 -20 55 -18 0 -20 -7 -20 -55 0 -30 -4
-55 -10 -55 -6 0 -10 28 -10 63 l0 63 63 0 c34 -1 68 -5 75 -9z m260 1 c27
-27 7 -78 -32 -78 -18 0 -18 1 -3 18 23 26 22 52 -3 52 -17 0 -20 -7 -20 -45
0 -45 0 -45 35 -45 19 0 35 -5 35 -11 0 -6 -17 -9 -42 -7 l-43 3 -3 48 c-2 27
2 55 9 63 14 17 51 18 67 2z m123 -4 c12 -15 6 -44 -11 -44 -5 0 -10 9 -10 20
0 11 -7 20 -15 20 -12 0 -15 -13 -15 -55 0 -42 -3 -55 -15 -55 -12 0 -15 14
-15 64 l0 64 35 0 c19 0 39 -6 46 -14z m-548 -406 c16 -10 2 -22 -18 -15 -12
5 -15 24 -15 90 0 110 14 122 18 16 2 -50 8 -86 15 -91z m187 79 l0 -94 -32
-1 c-45 -1 -58 13 -58 62 0 47 13 66 47 66 17 0 23 6 23 23 0 21 7 37 17 37 2
0 3 -42 3 -93z m-130 68 c0 -8 -4 -15 -10 -15 -5 0 -10 7 -10 15 0 8 5 15 10
15 6 0 10 -7 10 -15z m-135 -5 c4 -6 -10 -10 -34 -10 -34 0 -41 -3 -41 -20 0
-15 7 -20 28 -20 36 0 52 -17 52 -55 0 -39 -16 -55 -56 -55 -42 0 -64 25 -41
48 16 15 17 15 17 -6 0 -17 6 -22 25 -22 22 0 25 4 25 35 0 32 -3 35 -28 35
-46 0 -69 39 -40 68 15 15 84 16 93 2z m135 -95 c0 -37 -4 -65 -10 -65 -11 0
-14 113 -3 123 12 13 13 7 13 -58z m250 51 c6 -8 10 -25 8 -37 -3 -25 -33 -48
-45 -35 -4 4 0 12 10 17 24 14 22 49 -3 49 -17 0 -20 -7 -20 -45 0 -43 1 -45
30 -45 17 0 30 -4 30 -10 0 -14 -64 -12 -78 2 -16 16 -16 90 0 106 16 16 53
15 68 -2z m128 -10 c2 -10 -1 -23 -7 -29 -8 -8 -11 -5 -11 11 0 15 -6 22 -20
22 -18 0 -20 -7 -20 -55 0 -30 -4 -55 -10 -55 -6 0 -10 28 -10 64 l0 63 37 -1
c28 -1 39 -6 41 -20z m-398 -310 c0 -58 4 -86 13 -89 6 -2 8 -8 4 -13 -4 -4
-16 -3 -25 2 -13 9 -18 28 -20 84 -3 77 1 100 18 100 6 0 10 -33 10 -84z m328
-3 l28 27 2 -65 c1 -37 -3 -65 -8 -65 -6 0 -10 16 -10 35 0 28 -4 35 -20 35
-16 0 -20 -7 -20 -35 0 -19 -4 -35 -10 -35 -12 0 -14 173 -2 184 4 4 8 -18 10
-49 l3 -58 27 26z m-418 52 c7 -8 9 -22 6 -31 -3 -8 1 -22 9 -30 18 -18 20
-65 3 -82 -7 -7 -32 -12 -56 -12 l-44 0 4 75 c2 41 0 75 -4 75 -5 0 -8 5 -8
10 0 16 76 12 90 -5z m208 -37 c16 -16 16 -90 0 -106 -15 -15 -51 -15 -66 0
-7 7 -12 30 -12 53 0 46 13 65 45 65 12 0 26 -5 33 -12z m121 -2 c8 -10 9 -16
1 -21 -5 -3 -10 -1 -10 4 0 6 -9 11 -21 11 -18 0 -20 -5 -17 -42 3 -39 6 -43
31 -46 42 -5 32 -24 -10 -20 -38 3 -38 3 -41 51 -2 27 2 55 9 63 15 18 43 18
58 0z"/>
<path d="M752 778 c2 -31 8 -44 21 -46 14 -3 17 4 17 42 0 40 -3 46 -21 46
-18 0 -20 -5 -17 -42z"/>
<path d="M658 513 c-14 -3 -18 -15 -18 -49 0 -37 3 -44 20 -44 17 0 20 7 20
50 0 28 -1 49 -2 49 -2 -1 -11 -3 -20 -6z"/>
<path d="M400 175 l0 -65 30 0 c28 0 30 3 30 35 0 31 -3 35 -27 35 -25 1 -26
2 -10 14 23 18 22 46 -3 46 -18 0 -20 -7 -20 -65z"/>
<path d="M620 155 c0 -33 4 -45 15 -45 11 0 15 12 15 45 0 33 -4 45 -15 45
-11 0 -15 -12 -15 -45z"/>
</g>
</svg>
